<svg xmlns="http://www.w3.org/2000/svg" viewBox="0 0 179.84 99.49"><defs><style>.cls-1,.cls-2{fill:#fff;}.cls-1,.cls-3,.cls-4{fill-rule:evenodd;}.cls-3{fill:#ed3237;}.cls-4{fill:#ffcc29;}</style></defs><title>Asset 3</title><g id="Layer_2" data-name="Layer 2"><g id="Layer_1-2" data-name="Layer 1"><path class="cls-1" d="M159.61,67.25a14.11,14.11,0,0,0,.35,2.24,6.67,6.67,0,0,0,1.25,2.58,5.45,5.45,0,0,0,2.2,1.59,9.7,9.7,0,0,0,3.66.59,15.81,15.81,0,0,0,3.22-.29,20.94,20.94,0,0,0,2.47-.67c.59-.21,1.19-.43,1.76-.68a4.41,4.41,0,0,1,1.74-.46,2.21,2.21,0,0,1,2.09,1.38,3.58,3.58,0,0,1,.26,1.06,10.31,10.31,0,0,1,0,1.11,8.44,8.44,0,0,1,0,.87q0,.33-.09.66a3.16,3.16,0,0,1-.36.94,3.5,3.5,0,0,1-.51.64,5.32,5.32,0,0,1-1.47.88,17.11,17.11,0,0,1-2.4.85,33,33,0,0,1-3.25.7,24.34,24.34,0,0,1-4,.32A18.88,18.88,0,0,1,160,80.49a12.79,12.79,0,0,1-5-3.25,14,14,0,0,1-3-5.35,23.79,23.79,0,0,1-1-7.11,22.47,22.47,0,0,1,1-7,15.19,15.19,0,0,1,3-5.42,13.24,13.24,0,0,1,4.8-3.48,15.36,15.36,0,0,1,6.17-1.2,15.12,15.12,0,0,1,6.26,1.2,12.22,12.22,0,0,1,4.35,3.26,13,13,0,0,1,2.49,4.75,19.87,19.87,0,0,1,.76,5.58v.93a3.49,3.49,0,0,1-3.55,3.81Zm11.89-6.9a6.88,6.88,0,0,0-1.38-3.76,5.32,5.32,0,0,0-4.35-1.73,5.82,5.82,0,0,0-2.63.56,5.45,5.45,0,0,0-1.86,1.47,7.15,7.15,0,0,0-1.23,2.25,10.27,10.27,0,0,0-.32,1.21Z"/><path class="cls-1" d="M128.47,67.25a15.37,15.37,0,0,0,.36,2.24,6.53,6.53,0,0,0,1.25,2.58,5.45,5.45,0,0,0,2.2,1.59,9.7,9.7,0,0,0,3.66.59,15.65,15.65,0,0,0,3.21-.29,20.58,20.58,0,0,0,2.48-.67c.58-.21,1.19-.43,1.75-.68a4.46,4.46,0,0,1,1.75-.46,2.19,2.19,0,0,1,2.08,1.38,3.6,3.6,0,0,1,.27,1.06,10.31,10.31,0,0,1,.05,1.11,8.44,8.44,0,0,1,0,.87q0,.33-.09.66a3.16,3.16,0,0,1-.36.94,3.5,3.5,0,0,1-.51.64,5.47,5.47,0,0,1-1.47.88,17.11,17.11,0,0,1-2.4.85,33,33,0,0,1-3.25.7,24.34,24.34,0,0,1-4,.32,18.84,18.84,0,0,1-6.58-1.07,12.79,12.79,0,0,1-5-3.25,13.75,13.75,0,0,1-3-5.35,23.79,23.79,0,0,1-1-7.11,22.47,22.47,0,0,1,1-7,15.19,15.19,0,0,1,3-5.42,13.16,13.16,0,0,1,4.8-3.48,15.36,15.36,0,0,1,6.17-1.2,15.12,15.12,0,0,1,6.26,1.2,12.22,12.22,0,0,1,4.35,3.26A13,13,0,0,1,148,56.93a20.25,20.25,0,0,1,.76,5.58v.93a3.51,3.51,0,0,1-3.55,3.81Zm11.9-6.9A6.89,6.89,0,0,0,139,56.59a5.29,5.29,0,0,0-4.34-1.73,5.82,5.82,0,0,0-2.63.56,5.58,5.58,0,0,0-1.87,1.47,7.33,7.33,0,0,0-1.22,2.25,10.27,10.27,0,0,0-.32,1.21Z"/><path class="cls-1" d="M8.27,79.2V89.7A2.32,2.32,0,0,1,7.86,91a2.51,2.51,0,0,1-1,.84,3.84,3.84,0,0,1-1.25.32,11.8,11.8,0,0,1-1.46.07,11.1,11.1,0,0,1-1.41-.07,4,4,0,0,1-1.23-.31,2.33,2.33,0,0,1-1.15-1A2.43,2.43,0,0,1,0,89.7v-39a2.52,2.52,0,0,1,.3-1.23,2.3,2.3,0,0,1,1.08-.94,3.85,3.85,0,0,1,1.21-.31c.4,0,.81-.06,1.22-.06s.83,0,1.24.06a4,4,0,0,1,1.18.31,2.4,2.4,0,0,1,1,.85,2.28,2.28,0,0,1,.37,1.32v.19a15.93,15.93,0,0,1,2.53-1.69A12.44,12.44,0,0,1,13,48.1,12,12,0,0,1,16,47.72,12.14,12.14,0,0,1,22,49.1a11.38,11.38,0,0,1,4,3.73,16.09,16.09,0,0,1,2.18,5.28,26.65,26.65,0,0,1,.67,6.1,27,27,0,0,1-.85,7,16,16,0,0,1-2.58,5.5A12.11,12.11,0,0,1,21,80.3a13.39,13.39,0,0,1-5.88,1.26,11.14,11.14,0,0,1-2.64-.3,10.71,10.71,0,0,1-2.44-.91A13.17,13.17,0,0,1,8.27,79.2m0-19.49v10a19.31,19.31,0,0,0,3.35,3.23A5.14,5.14,0,0,0,14.67,74a4.22,4.22,0,0,0,2.43-.66,5.53,5.53,0,0,0,1.74-1.95,10.83,10.83,0,0,0,1.09-3,17.68,17.68,0,0,0,.37-3.55,24.1,24.1,0,0,0-.3-3.89,10.55,10.55,0,0,0-1-3.1,5.07,5.07,0,0,0-1.63-1.9A4.14,4.14,0,0,0,15,55.26a5,5,0,0,0-1.49.23,6.32,6.32,0,0,0-1.57.76,12.51,12.51,0,0,0-1.85,1.48A22.48,22.48,0,0,0,8.27,59.71Z"/><path class="cls-1" d="M103.3,67.78V78.62a2.25,2.25,0,0,1-.45,1.37,2.62,2.62,0,0,1-1,.77,4.22,4.22,0,0,1-1.22.32,12.22,12.22,0,0,1-1.48.07,11.48,11.48,0,0,1-1.44-.07,4.23,4.23,0,0,1-1.21-.31,2.3,2.3,0,0,1-1.11-.91A2.36,2.36,0,0,1,95,78.62V37.16A2.43,2.43,0,0,1,95.35,36a2.36,2.36,0,0,1,1.18-1,4.72,4.72,0,0,1,1.18-.28,11.48,11.48,0,0,1,1.44-.08,12.23,12.23,0,0,1,1.48.08,4.5,4.5,0,0,1,1.19.29,2.52,2.52,0,0,1,1.07.87,2.25,2.25,0,0,1,.41,1.33V58.35l7.82-8.59a4.54,4.54,0,0,1,.78-.74,4.47,4.47,0,0,1,1-.54,5.26,5.26,0,0,1,1.31-.27q.7-.06,1.41-.06c.48,0,1,0,1.45.06a5.06,5.06,0,0,1,1.22.23,2.48,2.48,0,0,1,1.18.78,2.27,2.27,0,0,1,.49,1.43,3.06,3.06,0,0,1-.39,1.48,5,5,0,0,1-.94,1.24l-9.14,9.16L120,76.17a8.27,8.27,0,0,1,.71,1.07,2.78,2.78,0,0,1,.36,1.35,2.34,2.34,0,0,1-.36,1.26,2.37,2.37,0,0,1-1.14.93,5,5,0,0,1-1.25.3,12.89,12.89,0,0,1-1.52.07c-.51,0-1,0-1.52-.05a8,8,0,0,1-1.19-.2,3.2,3.2,0,0,1-1.22-.65,4.33,4.33,0,0,1-.64-.71Z"/><path class="cls-1" d="M81.25,60.7V78.62A2.31,2.31,0,0,1,80.81,80a2.62,2.62,0,0,1-1,.77,4.38,4.38,0,0,1-1.23.32,12.22,12.22,0,0,1-1.48.07,11.57,11.57,0,0,1-1.44-.07,4.23,4.23,0,0,1-1.21-.31,2.3,2.3,0,0,1-1.11-.91A2.35,2.35,0,0,1,73,78.62V50.69a2.41,2.41,0,0,1,.3-1.21,2.36,2.36,0,0,1,1-.92,3.54,3.54,0,0,1,1.27-.35q.66-.06,1.32-.06c.43,0,.87,0,1.3.06a3.25,3.25,0,0,1,1.32.39,2.5,2.5,0,0,1,.9.84,2.2,2.2,0,0,1,.33,1,13.22,13.22,0,0,1,1.64-1.35,7.52,7.52,0,0,1,2.26-1,8.85,8.85,0,0,1,2.17-.28,9.46,9.46,0,0,1,1.07.06,9.21,9.21,0,0,1,1.28.2,11.91,11.91,0,0,1,1.17.32,3.85,3.85,0,0,1,1.12.58,2.45,2.45,0,0,1,.69.87,4,4,0,0,1,.2.67,4.59,4.59,0,0,1,.1.9c0,.4,0,.8,0,1.2s0,.83,0,1.25a4.79,4.79,0,0,1-.2,1.12,2.5,2.5,0,0,1-.58,1,2,2,0,0,1-1.53.63,3.06,3.06,0,0,1-1.19-.25c-.22-.09-.46-.16-.69-.23s-.59-.16-.88-.23a3.7,3.7,0,0,0-.88-.09,2.4,2.4,0,0,0-.91.2,4.28,4.28,0,0,0-1.13.75,10.89,10.89,0,0,0-1.52,1.66c-.58.77-1.13,1.58-1.66,2.39"/><path class="cls-1" d="M39.05,59.65v19A2.25,2.25,0,0,1,38.6,80a2.62,2.62,0,0,1-1,.77,4.29,4.29,0,0,1-1.23.32,12,12,0,0,1-1.47.07,11.48,11.48,0,0,1-1.44-.07,4.23,4.23,0,0,1-1.21-.31,2.26,2.26,0,0,1-1.47-2.15V37.16A2.43,2.43,0,0,1,31.1,36a2.36,2.36,0,0,1,1.18-1,4.72,4.72,0,0,1,1.18-.28,11.48,11.48,0,0,1,1.44-.08,12.23,12.23,0,0,1,1.48.08,4.5,4.5,0,0,1,1.19.29,2.52,2.52,0,0,1,1.07.87,2.32,2.32,0,0,1,.41,1.33v13.2A15,15,0,0,1,41.21,49a11.47,11.47,0,0,1,5.2-1.3,12.23,12.23,0,0,1,5.4,1.11,10.06,10.06,0,0,1,3.66,3,11.77,11.77,0,0,1,2,4.27A23.7,23.7,0,0,1,58,61.61v17A2.27,2.27,0,0,1,57.53,80a2.51,2.51,0,0,1-1,.78,4.21,4.21,0,0,1-1.22.31,11.32,11.32,0,0,1-1.43.07,12.22,12.22,0,0,1-1.48-.07,4.29,4.29,0,0,1-1.23-.32,2.62,2.62,0,0,1-1-.77,2.27,2.27,0,0,1-.45-1.37V62.26a14.26,14.26,0,0,0-.32-3.45,6.51,6.51,0,0,0-.86-2,3.08,3.08,0,0,0-1.24-1.08,4.26,4.26,0,0,0-1.93-.4,5.18,5.18,0,0,0-2.94,1.07,18.35,18.35,0,0,0-3.37,3.28"/><path class="cls-2" d="M178.29,96.34a.2.2,0,0,1,0,.11l-.11.08-.2,0h-.66l-.2,0a.35.35,0,0,1-.11-.08.2.2,0,0,1,0-.11V85.53a.18.18,0,0,1,0-.11s.06-.06.11-.09a.88.88,0,0,1,.2,0l.33,0,.33,0,.2,0a.33.33,0,0,1,.11.09.18.18,0,0,1,0,.11ZM170.05,93h-1.14a4.48,4.48,0,0,0-1,.09,2.29,2.29,0,0,0-.67.28,1.09,1.09,0,0,0-.39.44,1.34,1.34,0,0,0-.13.58,1.2,1.2,0,0,0,.36.91,1.45,1.45,0,0,0,1,.33,1.88,1.88,0,0,0,1-.27,4.12,4.12,0,0,0,.94-.81Zm1.33,3.33a.17.17,0,0,1-.07.14.38.38,0,0,1-.18.08l-.33,0-.33,0a.37.37,0,0,1-.19-.08.16.16,0,0,1-.05-.14v-.73a3.66,3.66,0,0,1-1.07.79,2.79,2.79,0,0,1-1.24.29,3.11,3.11,0,0,1-1-.16,2.08,2.08,0,0,1-.79-.43,1.94,1.94,0,0,1-.51-.69,2.35,2.35,0,0,1-.18-.94,2.14,2.14,0,0,1,.25-1.07,2,2,0,0,1,.72-.75,3.45,3.45,0,0,1,1.15-.45,7.08,7.08,0,0,1,1.53-.15h1v-.57a2.73,2.73,0,0,0-.09-.74,1.17,1.17,0,0,0-.29-.54,1.33,1.33,0,0,0-.51-.33,2.51,2.51,0,0,0-.78-.1,3.36,3.36,0,0,0-.88.11,4.81,4.81,0,0,0-.69.26l-.5.26a.63.63,0,0,1-.29.12.2.2,0,0,1-.11,0,.22.22,0,0,1-.09-.1.58.58,0,0,1,0-.17,1.47,1.47,0,0,1,0-.54.41.41,0,0,1,.14-.22,2.08,2.08,0,0,1,.37-.25,5.27,5.27,0,0,1,.62-.26,6.48,6.48,0,0,1,.76-.19,4.6,4.6,0,0,1,.84-.08,4.32,4.32,0,0,1,1.33.18,2.16,2.16,0,0,1,.89.52,2.09,2.09,0,0,1,.49.86,4.16,4.16,0,0,1,.16,1.18ZM161.2,95.8a1.87,1.87,0,0,1,0,.38.34.34,0,0,1-.1.2.57.57,0,0,1-.19.12,1.32,1.32,0,0,1-.3.09,1.82,1.82,0,0,1-.35.06,2.31,2.31,0,0,1-.37,0,2.78,2.78,0,0,1-1-.15,1.65,1.65,0,0,1-.67-.45,2,2,0,0,1-.37-.77,4.46,4.46,0,0,1-.12-1.1V90h-1a.21.21,0,0,1-.19-.13.83.83,0,0,1-.08-.42,1.69,1.69,0,0,1,0-.25,1.89,1.89,0,0,1,.06-.18.27.27,0,0,1,.08-.1l.12,0h1V87.12a.2.2,0,0,1,0-.11.3.3,0,0,1,.1-.09.93.93,0,0,1,.21,0h.66a.83.83,0,0,1,.2,0,.3.3,0,0,1,.1.09.15.15,0,0,1,0,.11v1.73h1.87l.11,0a.27.27,0,0,1,.08.1.35.35,0,0,1,.05.18.94.94,0,0,1,0,.25.86.86,0,0,1-.07.42.21.21,0,0,1-.19.13h-1.87V94a2.33,2.33,0,0,0,.22,1.14.85.85,0,0,0,.8.38,1.15,1.15,0,0,0,.33,0l.26-.07.19-.08a.28.28,0,0,1,.15,0l.07,0a.17.17,0,0,1,.06.08.57.57,0,0,1,0,.15A.9.9,0,0,1,161.2,95.8ZM152,86.6a.89.89,0,0,1-.17.64,1,1,0,0,1-.66.16,1,1,0,0,1-.64-.16.85.85,0,0,1-.17-.63.89.89,0,0,1,.17-.64,1,1,0,0,1,.66-.17.93.93,0,0,1,.64.17A.85.85,0,0,1,152,86.6Zm-.15,9.74a.2.2,0,0,1,0,.11.44.44,0,0,1-.1.08l-.21,0h-.65l-.21,0c-.05,0-.09,0-.1-.08a.2.2,0,0,1,0-.11V89.06a.23.23,0,0,1,0-.11.17.17,0,0,1,.1-.08.81.81,0,0,1,.21-.05h.65a.93.93,0,0,1,.21.05.27.27,0,0,1,.1.08.23.23,0,0,1,0,.11Zm-7.59.74a.83.83,0,0,0-.38-.73,2,2,0,0,0-1-.27L140.92,96a3.25,3.25,0,0,0-.42.38,2.55,2.55,0,0,0-.27.35,1.13,1.13,0,0,0-.13.33,1.15,1.15,0,0,0,0,.33.84.84,0,0,0,.54.79,3.33,3.33,0,0,0,1.49.27,3.66,3.66,0,0,0,1-.11,2,2,0,0,0,.66-.31,1.09,1.09,0,0,0,.36-.45A1.35,1.35,0,0,0,144.23,97.08Zm-.67-5.77a1.62,1.62,0,0,0-.41-1.17,1.58,1.58,0,0,0-1.16-.41,1.62,1.62,0,0,0-.68.13,1.19,1.19,0,0,0-.47.35,1.71,1.71,0,0,0-.29.53,2,2,0,0,0-.09.61,1.56,1.56,0,0,0,.41,1.14,1.54,1.54,0,0,0,1.14.41,1.6,1.6,0,0,0,.69-.13,1.31,1.31,0,0,0,.48-.34,1.55,1.55,0,0,0,.29-.52A2,2,0,0,0,143.56,91.31Zm2.09-1.92a.84.84,0,0,1-.08.41.23.23,0,0,1-.2.12h-1a1.57,1.57,0,0,1,.39.65,2.24,2.24,0,0,1,.12.73,3,3,0,0,1-.2,1.12,2.4,2.4,0,0,1-.58.82,2.64,2.64,0,0,1-.9.51,3.47,3.47,0,0,1-1.15.18,2.89,2.89,0,0,1-.84-.12,1.7,1.7,0,0,1-.62-.3,1.16,1.16,0,0,0-.24.34.94.94,0,0,0-.09.43.56.56,0,0,0,.26.47,1.29,1.29,0,0,0,.7.2l1.9.08a3.88,3.88,0,0,1,1,.15,2.36,2.36,0,0,1,.78.38,1.62,1.62,0,0,1,.52.61,1.81,1.81,0,0,1,.19.83,2.28,2.28,0,0,1-.21,1,2.2,2.2,0,0,1-.65.79,3.15,3.15,0,0,1-1.1.55,5.77,5.77,0,0,1-1.59.19,7.08,7.08,0,0,1-1.5-.14,3.27,3.27,0,0,1-1-.41,1.62,1.62,0,0,1-.58-.62,1.72,1.72,0,0,1-.18-.78,1.81,1.81,0,0,1,.07-.52,2,2,0,0,1,.19-.48,3.37,3.37,0,0,1,.34-.43,3.6,3.6,0,0,1,.45-.41,1.46,1.46,0,0,1-.58-.51,1.21,1.21,0,0,1-.19-.66,1.85,1.85,0,0,1,.2-.89,2.9,2.9,0,0,1,.5-.69,2.44,2.44,0,0,1-.4-.68,2.68,2.68,0,0,1-.14-.91,2.82,2.82,0,0,1,.21-1.11,2.38,2.38,0,0,1,.58-.84,2.66,2.66,0,0,1,.9-.52,3.43,3.43,0,0,1,1.13-.18,6,6,0,0,1,.62,0,4.29,4.29,0,0,1,.54.11h2.2a.23.23,0,0,1,.21.13A1,1,0,0,1,145.65,89.39ZM134.12,86.6a.89.89,0,0,1-.18.64,1,1,0,0,1-.65.16.93.93,0,0,1-.64-.16.85.85,0,0,1-.18-.63.89.89,0,0,1,.18-.64,1,1,0,0,1,.65-.17A1,1,0,0,1,134,86,.9.9,0,0,1,134.12,86.6ZM134,96.34a.2.2,0,0,1,0,.11l-.11.08-.2,0H133l-.2,0a.35.35,0,0,1-.11-.08.2.2,0,0,1,0-.11V89.06a.23.23,0,0,1,0-.11.24.24,0,0,1,.11-.08.83.83,0,0,1,.2-.05h.66a.72.72,0,0,1,.2.05.31.31,0,0,1,.11.08.23.23,0,0,1,0,.11Zm-8.27-5.12a5.3,5.3,0,0,0-1-1,1.86,1.86,0,0,0-1.06-.35,1.5,1.5,0,0,0-.86.24,2,2,0,0,0-.58.64,2.92,2.92,0,0,0-.32.9,5.05,5.05,0,0,0-.11,1,6.38,6.38,0,0,0,.09,1.08,2.9,2.9,0,0,0,.3.93,1.79,1.79,0,0,0,.55.66,1.55,1.55,0,0,0,.88.25,1.7,1.7,0,0,0,.51-.08,2.12,2.12,0,0,0,.51-.24,3.88,3.88,0,0,0,.54-.44,7,7,0,0,0,.6-.67ZM127,96.34a.2.2,0,0,1,0,.11.24.24,0,0,1-.09.08l-.19,0h-.55l-.19,0a.31.31,0,0,1-.11-.08.2.2,0,0,1,0-.11v-1a5,5,0,0,1-1.19,1,2.75,2.75,0,0,1-1.36.35,2.8,2.8,0,0,1-1.37-.32,2.53,2.53,0,0,1-.91-.84,3.65,3.65,0,0,1-.52-1.24,7.43,7.43,0,0,1-.16-1.51,6.84,6.84,0,0,1,.2-1.7,4,4,0,0,1,.6-1.29,2.79,2.79,0,0,1,1-.82,3,3,0,0,1,1.35-.29,2.53,2.53,0,0,1,1.17.28,4.43,4.43,0,0,1,1,.82V85.56a.23.23,0,0,1,0-.11.2.2,0,0,1,.11-.08l.2-.05.32,0,.33,0a1.13,1.13,0,0,1,.2.05.2.2,0,0,1,.11.08.17.17,0,0,1,0,.11Z"/><path class="cls-3" d="M69.35,78.62A2.25,2.25,0,0,1,68.9,80a2.62,2.62,0,0,1-1,.77,4.38,4.38,0,0,1-1.23.32,12.22,12.22,0,0,1-1.48.07,11.57,11.57,0,0,1-1.44-.07,4.23,4.23,0,0,1-1.21-.31,2.3,2.3,0,0,1-1.11-.91,2.35,2.35,0,0,1-.35-1.24V36.57a2.4,2.4,0,0,1,.3-1.15,2.36,2.36,0,0,1,1.2-1,4.66,4.66,0,0,1,1.17-.29A11.58,11.58,0,0,1,65.19,34a12.23,12.23,0,0,1,1.48.08,4.43,4.43,0,0,1,1.19.3A2.38,2.38,0,0,1,69,35.3a2.22,2.22,0,0,1,.4,1.27V50.44s0,.08,0,.13,0,.08,0,.12Z"/><path class="cls-3" d="M68.39,16.45A1.9,1.9,0,0,1,68,17.61a2.3,2.3,0,0,1-.85.66,3.8,3.8,0,0,1-1,.27,10.73,10.73,0,0,1-1.26.06,10.13,10.13,0,0,1-1.23-.06,4.1,4.1,0,0,1-1-.26,2,2,0,0,1-.94-.78,1.94,1.94,0,0,1-.3-1.05V2.16a2,2,0,0,1,.26-1,1.94,1.94,0,0,1,1-.86,3.86,3.86,0,0,1,1-.25A8.46,8.46,0,0,1,64.86,0a9,9,0,0,1,1.26.07,3.93,3.93,0,0,1,1,.25,2.07,2.07,0,0,1,.93.75,1.94,1.94,0,0,1,.33,1.09Z"/><path class="cls-4" d="M60,16.71a1.93,1.93,0,0,1,.55,1.09,2.16,2.16,0,0,1-.14,1.07,3.33,3.33,0,0,1-.54.93,10.76,10.76,0,0,1-.85.94,10.2,10.2,0,0,1-.91.82,4,4,0,0,1-.91.54A2,2,0,0,1,55,21.69L44.93,11.58a1.94,1.94,0,0,1-.4-2.2,4,4,0,0,1,.53-.89,10.05,10.05,0,0,1,.82-.91,10.64,10.64,0,0,1,.94-.84,3.42,3.42,0,0,1,.9-.54,2.07,2.07,0,0,1,1.18-.12,1.87,1.87,0,0,1,1,.53Z"/><path class="cls-3" d="M55.54,22.64A1.89,1.89,0,0,1,56.7,23a2.13,2.13,0,0,1,.66.85,3.71,3.71,0,0,1,.27,1,10.63,10.63,0,0,1,.06,1.26,10.13,10.13,0,0,1-.06,1.23,4,4,0,0,1-.26,1,2,2,0,0,1-.78.95,1.94,1.94,0,0,1-1.05.3H41.25a2,2,0,0,1-1-.26,1.94,1.94,0,0,1-.86-1,4,4,0,0,1-.25-1,10.14,10.14,0,0,1-.07-1.23,8.87,8.87,0,0,1,.07-1.26,3.58,3.58,0,0,1,.26-1,2,2,0,0,1,.74-.93,2,2,0,0,1,1.09-.34Z"/><path class="cls-4" d="M60,36.16a1.93,1.93,0,0,0,.55-1.09A2.18,2.18,0,0,0,60.42,34a3.48,3.48,0,0,0-.54-.93,10.76,10.76,0,0,0-.85-.94,10.2,10.2,0,0,0-.91-.82,4,4,0,0,0-.91-.54,2,2,0,0,0-2.18.41L44.93,41.29a2,2,0,0,0-.51.87,2,2,0,0,0,.11,1.33,3.81,3.81,0,0,0,.53.89,10.05,10.05,0,0,0,.82.91,10.64,10.64,0,0,0,.94.84,3.42,3.42,0,0,0,.9.54,2,2,0,0,0,1.18.12,1.87,1.87,0,0,0,1-.53Z"/><path class="cls-4" d="M70.45,16.71a2,2,0,0,0-.55,1.09A2.16,2.16,0,0,0,70,18.87a3.33,3.33,0,0,0,.54.93,10.76,10.76,0,0,0,.85.94,10.2,10.2,0,0,0,.91.82,4,4,0,0,0,.91.54,2,2,0,0,0,1.22.12,2,2,0,0,0,1-.53l10.1-10.11a1.94,1.94,0,0,0,.4-2.2,4,4,0,0,0-.53-.89,10.05,10.05,0,0,0-.82-.91,9.39,9.39,0,0,0-.94-.84,3.42,3.42,0,0,0-.9-.54,2.07,2.07,0,0,0-1.18-.12,1.87,1.87,0,0,0-1,.53Z"/><path class="cls-3" d="M74.92,22.64a1.89,1.89,0,0,0-1.16.39,2.22,2.22,0,0,0-.66.85,3.71,3.71,0,0,0-.27,1,10.63,10.63,0,0,0-.06,1.26,10.13,10.13,0,0,0,.06,1.23,4,4,0,0,0,.26,1,2,2,0,0,0,.78.95,1.94,1.94,0,0,0,1,.3H89.21a2,2,0,0,0,1-.26,1.94,1.94,0,0,0,.86-1,4,4,0,0,0,.25-1,8.46,8.46,0,0,0,.07-1.23,8.87,8.87,0,0,0-.07-1.26,3.93,3.93,0,0,0-.25-1A2,2,0,0,0,90.3,23a2,2,0,0,0-1.09-.34Z"/><path class="cls-4" d="M70.45,36.16a2,2,0,0,1-.55-1.09A2.18,2.18,0,0,1,70,34a3.48,3.48,0,0,1,.54-.93,10.76,10.76,0,0,1,.85-.94,10.2,10.2,0,0,1,.91-.82,4,4,0,0,1,.91-.54,2,2,0,0,1,1.22-.12,2,2,0,0,1,1,.53l10.1,10.11a2,2,0,0,1,.51.87,2,2,0,0,1-.11,1.33,3.81,3.81,0,0,1-.53.89,10.05,10.05,0,0,1-.82.91,9.39,9.39,0,0,1-.94.84,3.42,3.42,0,0,1-.9.54,2,2,0,0,1-1.18.12,1.87,1.87,0,0,1-1-.53Z"/></g></g></svg>