<svg id="Layer_1" data-name="Layer 1" xmlns="http://www.w3.org/2000/svg" viewBox="0 0 491.11 255.84"><defs><style>.cls-1{fill:#ed3237;}.cls-1,.cls-2{fill-rule:evenodd;}.cls-2{fill:#fff212;}</style></defs><title>small-logo</title><path class="cls-1" d="M111.89,61.55a6.48,6.48,0,0,1-1.29,3.93,7.62,7.62,0,0,1-2.87,2.22,12.66,12.66,0,0,1-3.54.92,40,40,0,0,1-8.38,0,12.64,12.64,0,0,1-3.48-.89,6.78,6.78,0,0,1-3.2-2.61,6.85,6.85,0,0,1-1-3.57V13.29A6.85,6.85,0,0,1,89,10a6.58,6.58,0,0,1,3.44-2.92,13.5,13.5,0,0,1,3.38-.84,40,40,0,0,1,8.38,0,13,13,0,0,1,3.43.87,7,7,0,0,1,3.14,2.53,6.51,6.51,0,0,1,1.13,3.67Z" transform="translate(-6 61.84)"/><path class="cls-2" d="M403.31-23.5a6.86,6.86,0,0,1,2,3.93,7.84,7.84,0,0,1-.49,3.83,13.14,13.14,0,0,1-2,3.35,34.52,34.52,0,0,1-3,3.36,35.25,35.25,0,0,1-3.27,2.95,13.94,13.94,0,0,1-3.28,2,7.32,7.32,0,0,1-4.38.44,7.27,7.27,0,0,1-3.44-1.92L349.12-41.92a7.32,7.32,0,0,1-1.83-3.15,7.1,7.1,0,0,1,.39-4.78A14.61,14.61,0,0,1,349.59-53a35.23,35.23,0,0,1,3-3.28,35.76,35.76,0,0,1,3.36-3,13.26,13.26,0,0,1,3.24-1.92,7.4,7.4,0,0,1,4.26-.46A6.84,6.84,0,0,1,367-59.8Z" transform="translate(-6 61.84)"/><path class="cls-1" d="M61.55,88.11a6.54,6.54,0,0,1,3.93,1.29,7.62,7.62,0,0,1,2.22,2.87,12.32,12.32,0,0,1,.92,3.54,40,40,0,0,1,0,8.38,12.64,12.64,0,0,1-.89,3.48,6.78,6.78,0,0,1-2.61,3.2,6.85,6.85,0,0,1-3.57,1H13.29A6.85,6.85,0,0,1,10,111a6.58,6.58,0,0,1-2.92-3.44,13.5,13.5,0,0,1-.84-3.38A31.66,31.66,0,0,1,6,100.06a33.52,33.52,0,0,1,.22-4.25,13,13,0,0,1,.87-3.43,7,7,0,0,1,2.53-3.14,6.49,6.49,0,0,1,3.67-1.13Z" transform="translate(-6 61.84)"/><path class="cls-2" d="M403.31,46.39a6.87,6.87,0,0,0,2-3.92,7.83,7.83,0,0,0-.49-3.83,12.8,12.8,0,0,0-2-3.35,34.52,34.52,0,0,0-3-3.36A33.88,33.88,0,0,0,396.53,29,13.94,13.94,0,0,0,393.25,27a7,7,0,0,0-7.82,1.48L349.12,64.82A7.29,7.29,0,0,0,347.29,68a7.09,7.09,0,0,0,.39,4.78,14.44,14.44,0,0,0,1.91,3.18,33.88,33.88,0,0,0,3,3.27,34.52,34.52,0,0,0,3.36,3,13.58,13.58,0,0,0,3.24,1.92,7.4,7.4,0,0,0,4.26.46A6.91,6.91,0,0,0,367,82.7Z" transform="translate(-6 61.84)"/><path class="cls-2" d="M440.83-23.5a6.86,6.86,0,0,0-2,3.93,7.84,7.84,0,0,0,.49,3.83,13.14,13.14,0,0,0,2,3.35,35.86,35.86,0,0,0,3,3.36,35,35,0,0,0,3.27,2.94,13.64,13.64,0,0,0,3.28,2,7.32,7.32,0,0,0,4.38.44,7.28,7.28,0,0,0,3.45-1.93L495-41.92a7.22,7.22,0,0,0,1.83-3.15,7,7,0,0,0-.39-4.78A14.61,14.61,0,0,0,494.55-53a35.12,35.12,0,0,0-2.94-3.28,37.17,37.17,0,0,0-3.37-3A13.26,13.26,0,0,0,485-61.25a7.4,7.4,0,0,0-4.26-.46,6.88,6.88,0,0,0-3.6,1.91Z" transform="translate(-6 61.84)"/><path class="cls-1" d="M138.45,88.11a6.54,6.54,0,0,0-3.93,1.29,7.52,7.52,0,0,0-2.22,2.87,12.32,12.32,0,0,0-.92,3.54,40,40,0,0,0,0,8.38,12.64,12.64,0,0,0,.89,3.48,6.78,6.78,0,0,0,2.61,3.2,6.85,6.85,0,0,0,3.57,1h48.26A6.85,6.85,0,0,0,190,111a6.58,6.58,0,0,0,2.92-3.44,13.5,13.5,0,0,0,.84-3.38,40,40,0,0,0,0-8.38,13,13,0,0,0-.87-3.43,7,7,0,0,0-2.53-3.14,6.49,6.49,0,0,0-3.67-1.13Z" transform="translate(-6 61.84)"/><path class="cls-2" d="M440.83,46.39a6.87,6.87,0,0,1-2-3.92,7.83,7.83,0,0,1,.49-3.83,12.8,12.8,0,0,1,2-3.35,35.86,35.86,0,0,1,3-3.36A35.11,35.11,0,0,1,447.61,29,13.94,13.94,0,0,1,450.89,27a7,7,0,0,1,7.83,1.48L495,64.82A7.19,7.19,0,0,1,496.85,68a7,7,0,0,1-.39,4.78,14.44,14.44,0,0,1-1.91,3.18,33.78,33.78,0,0,1-2.94,3.27,34.64,34.64,0,0,1-3.37,3A13.58,13.58,0,0,1,485,84.15a7.4,7.4,0,0,1-4.26.46,7,7,0,0,1-3.6-1.91Z" transform="translate(-6 61.84)"/><path class="cls-1" d="M111.89,186.71a6.48,6.48,0,0,1-1.29,3.93,7.52,7.52,0,0,1-2.87,2.22,12,12,0,0,1-3.54.92,40,40,0,0,1-8.38,0,13,13,0,0,1-3.48-.88,6.57,6.57,0,0,1-4.22-6.19V138.45a6.85,6.85,0,0,1,.88-3.31,6.58,6.58,0,0,1,3.44-2.92,14,14,0,0,1,3.38-.84,40,40,0,0,1,8.38,0,12.64,12.64,0,0,1,3.43.88,7,7,0,0,1,3.14,2.53,6.46,6.46,0,0,1,1.13,3.66Z" transform="translate(-6 61.84)"/><path class="cls-2" d="M135.59,81.22a6.47,6.47,0,0,1-3.69,1.86,7.46,7.46,0,0,1-3.59-.46,12,12,0,0,1-3.15-1.84A34.38,34.38,0,0,1,122,77.92a33.41,33.41,0,0,1-2.76-3.07,12.89,12.89,0,0,1-1.84-3.09,6.56,6.56,0,0,1,1.39-7.35l34.13-34.13a6.87,6.87,0,0,1,3-1.72,6.56,6.56,0,0,1,4.49.37,13.54,13.54,0,0,1,3,1.79,33.52,33.52,0,0,1,3.07,2.77,35.61,35.61,0,0,1,2.86,3.16,12.86,12.86,0,0,1,1.81,3.05,7,7,0,0,1,.43,4,6.53,6.53,0,0,1-1.8,3.39Z" transform="translate(-6 61.84)"/><path class="cls-2" d="M81.22,64.41a6.47,6.47,0,0,1,1.86,3.69,7.34,7.34,0,0,1-.46,3.59,12,12,0,0,1-1.85,3.15A32.89,32.89,0,0,1,77.92,78a32.26,32.26,0,0,1-3.08,2.76,12.64,12.64,0,0,1-3.08,1.84,6.56,6.56,0,0,1-7.35-1.39L30.28,47.09a6.87,6.87,0,0,1-1.72-3,6.56,6.56,0,0,1,.37-4.49,13.32,13.32,0,0,1,1.79-3,35,35,0,0,1,2.77-3.08,37.11,37.11,0,0,1,3.16-2.85,12.86,12.86,0,0,1,3.05-1.81,6.94,6.94,0,0,1,4-.42,6.44,6.44,0,0,1,3.39,1.79Z" transform="translate(-6 61.84)"/><path class="cls-2" d="M135.59,118.78a6.47,6.47,0,0,0-3.69-1.86,7.34,7.34,0,0,0-3.59.46,12,12,0,0,0-3.15,1.85,32.89,32.89,0,0,0-3.17,2.85,32.26,32.26,0,0,0-2.76,3.08,12.64,12.64,0,0,0-1.84,3.08,6.85,6.85,0,0,0-.41,4.12,6.74,6.74,0,0,0,1.8,3.23l34.13,34.13a6.87,6.87,0,0,0,3,1.72,6.56,6.56,0,0,0,4.49-.37,13.54,13.54,0,0,0,3-1.79,35,35,0,0,0,3.08-2.77,35.65,35.65,0,0,0,2.85-3.16,13,13,0,0,0,1.81-3,7.07,7.07,0,0,0,.43-4,6.53,6.53,0,0,0-1.8-3.39Z" transform="translate(-6 61.84)"/><path class="cls-2" d="M47.09,169.72a6.41,6.41,0,0,1-3.69,1.86,7.37,7.37,0,0,1-3.6-.46,12.15,12.15,0,0,1-3.15-1.84,35.61,35.61,0,0,1-3.16-2.86,33.52,33.52,0,0,1-2.77-3.07,13.19,13.19,0,0,1-1.83-3.09,6.56,6.56,0,0,1,1.39-7.35l34.13-34.13a6.75,6.75,0,0,1,3-1.71,6.57,6.57,0,0,1,4.49.36,14.19,14.19,0,0,1,3,1.79A35,35,0,0,1,77.92,122a34.38,34.38,0,0,1,2.86,3.17,12.76,12.76,0,0,1,1.8,3,7.05,7.05,0,0,1,.43,4,6.52,6.52,0,0,1-1.79,3.38Z" transform="translate(-6 61.84)"/></svg>